<mxfile host="app.diagrams.net" modified="2024-05-23T06:40:51.069Z" agent="Mozilla/5.0 (Windows NT 10.0; Win64; x64) AppleWebKit/537.36 (KHTML, like Gecko) Chrome/124.0.0.0 Safari/537.36" version="24.4.4" etag="Y_tobxv6CfgN_4JWdak3" type="github">
  <diagram name="Страница — 1" id="nmDjN18zCAq-y4KBHnXc">
    <mxGraphModel>
      <root>
        <mxCell id="0" />
        <mxCell id="1" parent="0" />
      </root>
    </mxGraphModel>
  </diagram>
</mxfile>
